<?xml version="1.0" encoding="UTF-8" standalone="no"?>
<!DOCTYPE svg PUBLIC "-//W3C//DTD SVG 1.1//EN"
 "http://www.w3.org/Graphics/SVG/1.1/DTD/svg11.dtd">
<!-- Generated by graphviz version 12.1.2 (20240928.0832)
 -->
<!-- Title: LIBRARIES/JLib/JLED/include/Color.hpp Pages: 1 -->
<svg width="169pt" height="208pt"
 viewBox="0.00 0.00 169.12 208.00" xmlns="http://www.w3.org/2000/svg" xmlns:xlink="http://www.w3.org/1999/xlink">
<g id="graph0" class="graph" transform="scale(1 1) rotate(0) translate(4 204)">
<title>LIBRARIES/JLib/JLED/include/Color.hpp</title>
<!-- Node1 -->
<g id="Node000001" class="node">
<title>Node1</title>
<g id="a_Node000001"><a xlink:title=" ">
<polygon fill="#999999" stroke="#666666" points="118,-200 0,-200 0,-168 118,-168 118,-200"/>
<text text-anchor="start" x="8" y="-186.5" font-family="Helvetica,sans-Serif" font-size="10.00">LIBRARIES/JLib/JLED</text>
<text text-anchor="middle" x="59" y="-174.5" font-family="Helvetica,sans-Serif" font-size="10.00">/include/Color.hpp</text>
</a>
</g>
</g>
<!-- Node2 -->
<g id="Node000002" class="node">
<title>Node2</title>
<g id="a_Node000002"><a xlink:title=" ">
<polygon fill="#e0e0e0" stroke="#999999" points="83.62,-20 38.38,-20 38.38,0 83.62,0 83.62,-20"/>
<text text-anchor="middle" x="61" y="-6.5" font-family="Helvetica,sans-Serif" font-size="10.00">cstdint</text>
</a>
</g>
</g>
<!-- Node1&#45;&gt;Node2 -->
<g id="edge1_Node000001_Node000002" class="edge">
<title>Node1&#45;&gt;Node2</title>
<g id="a_edge1_Node000001_Node000002"><a xlink:title=" ">
<path fill="none" stroke="#63b8ff" d="M52.31,-167.7C48.27,-157.73 43.46,-144.34 41,-132 34.4,-98.85 30.09,-88.87 38,-56 40.15,-47.07 44.39,-37.92 48.64,-30.22"/>
<polygon fill="#63b8ff" stroke="#63b8ff" points="51.56,-32.16 53.69,-21.78 45.55,-28.57 51.56,-32.16"/>
</a>
</g>
</g>
<!-- Node3 -->
<g id="Node000003" class="node">
<title>Node3</title>
<g id="a_Node000003"><a xlink:href="_color_correction_8hpp.html" target="_top" xlink:title=" ">
<polygon fill="white" stroke="#666666" points="152.5,-132 49.5,-132 49.5,-112 152.5,-112 152.5,-132"/>
<text text-anchor="middle" x="101" y="-118.5" font-family="Helvetica,sans-Serif" font-size="10.00">ColorCorrection.hpp</text>
</a>
</g>
</g>
<!-- Node1&#45;&gt;Node3 -->
<g id="edge2_Node000001_Node000003" class="edge">
<title>Node1&#45;&gt;Node3</title>
<g id="a_edge2_Node000001_Node000003"><a xlink:title=" ">
<path fill="none" stroke="#63b8ff" d="M69.82,-167.55C75.35,-159.65 82.12,-149.97 87.94,-141.66"/>
<polygon fill="#63b8ff" stroke="#63b8ff" points="90.68,-143.85 93.55,-133.65 84.94,-139.83 90.68,-143.85"/>
</a>
</g>
</g>
<!-- Node4 -->
<g id="Node000004" class="node">
<title>Node4</title>
<g id="a_Node000004"><a xlink:href="_gamma_correction_8hpp.html" target="_top" xlink:title=" ">
<polygon fill="white" stroke="#666666" points="161.12,-76 46.87,-76 46.87,-56 161.12,-56 161.12,-76"/>
<text text-anchor="middle" x="104" y="-62.5" font-family="Helvetica,sans-Serif" font-size="10.00">GammaCorrection.hpp</text>
</a>
</g>
</g>
<!-- Node3&#45;&gt;Node4 -->
<g id="edge3_Node000003_Node000004" class="edge">
<title>Node3&#45;&gt;Node4</title>
<g id="a_edge3_Node000003_Node000004"><a xlink:title=" ">
<path fill="none" stroke="#63b8ff" d="M101.52,-111.59C101.89,-105.01 102.39,-95.96 102.85,-87.73"/>
<polygon fill="#63b8ff" stroke="#63b8ff" points="106.34,-87.99 103.4,-77.81 99.35,-87.6 106.34,-87.99"/>
</a>
</g>
</g>
<!-- Node4&#45;&gt;Node2 -->
<g id="edge4_Node000004_Node000002" class="edge">
<title>Node4&#45;&gt;Node2</title>
<g id="a_edge4_Node000004_Node000002"><a xlink:title=" ">
<path fill="none" stroke="#63b8ff" d="M96.51,-55.59C90.71,-48.32 82.51,-38.02 75.45,-29.15"/>
<polygon fill="#63b8ff" stroke="#63b8ff" points="78.31,-27.12 69.35,-21.48 72.84,-31.49 78.31,-27.12"/>
</a>
</g>
</g>
</g>
</svg>
