<?xml version="1.0" encoding="UTF-8" standalone="no"?>
<!DOCTYPE svg PUBLIC "-//W3C//DTD SVG 1.1//EN"
 "http://www.w3.org/Graphics/SVG/1.1/DTD/svg11.dtd">
<!-- Generated by graphviz version 12.1.2 (20240928.0832)
 -->
<!-- Title: LIBRARIES/JLib/JLED/include/DMAStrip.hpp Pages: 1 -->
<svg width="438pt" height="376pt"
 viewBox="0.00 0.00 437.62 376.00" xmlns="http://www.w3.org/2000/svg" xmlns:xlink="http://www.w3.org/1999/xlink">

<svg id="main" version="1.1" xmlns="http://www.w3.org/2000/svg" xmlns:xlink="http://www.w3.org/1999/xlink" xml:space="preserve" onload="init(evt)">
<style type="text/css"><![CDATA[
.node, .edge {opacity: 0.7;}
.node.selected, .edge.selected {opacity: 1;}
.edge:hover path { stroke: red; }
.edge:hover polygon { stroke: red; fill: red; }
]]></style>
<script type="application/ecmascript" xlink:href="svg.min.js"/>
<svg id="graph" class="graph">
<g id="graph0" class="graph" transform="scale(1 1) rotate(0) translate(4 372)">
<title>LIBRARIES/JLib/JLED/include/DMAStrip.hpp</title>
<!-- Node1 -->
<g id="Node000001" class="node">
<title>Node1</title>
<g id="a_Node000001"><a xlink:title=" ">
<polygon fill="#999999" stroke="#666666" points="290.62,-368 172.62,-368 172.62,-336 290.62,-336 290.62,-368"/>
<text text-anchor="start" x="180.62" y="-354.5" font-family="Helvetica,sans-Serif" font-size="10.00">LIBRARIES/JLib/JLED</text>
<text text-anchor="middle" x="231.62" y="-342.5" font-family="Helvetica,sans-Serif" font-size="10.00">/include/DMAStrip.hpp</text>
</a>
</g>
</g>
<!-- Node2 -->
<g id="Node000002" class="node">
<title>Node2</title>
<g id="a_Node000002"><a xlink:href="_w_s28xx_strip_8hpp.html" target="_top" xlink:title=" ">
<polygon fill="white" stroke="#666666" points="240.88,-300 148.38,-300 148.38,-280 240.88,-280 240.88,-300"/>
<text text-anchor="middle" x="194.62" y="-286.5" font-family="Helvetica,sans-Serif" font-size="10.00">WS28xxStrip.hpp</text>
</a>
</g>
</g>
<!-- Node1&#45;&gt;Node2 -->
<g id="edge1_Node000001_Node000002" class="edge">
<title>Node1&#45;&gt;Node2</title>
<g id="a_edge1_Node000001_Node000002"><a xlink:title=" ">
<path fill="none" stroke="#63b8ff" d="M222.1,-335.55C217.28,-327.74 211.39,-318.19 206.3,-309.94"/>
<polygon fill="#63b8ff" stroke="#63b8ff" points="209.45,-308.37 201.22,-301.7 203.49,-312.05 209.45,-308.37"/>
</a>
</g>
</g>
<!-- Node6 -->
<g id="Node000006" class="node">
<title>Node6</title>
<g id="a_Node000006"><a xlink:href="_strip_types_8hpp.html" target="_top" xlink:title=" ">
<polygon fill="white" stroke="#666666" points="362.25,-244 281,-244 281,-224 362.25,-224 362.25,-244"/>
<text text-anchor="middle" x="321.62" y="-230.5" font-family="Helvetica,sans-Serif" font-size="10.00">StripTypes.hpp</text>
</a>
</g>
</g>
<!-- Node1&#45;&gt;Node6 -->
<g id="edge16_Node000001_Node000006" class="edge">
<title>Node1&#45;&gt;Node6</title>
<g id="a_edge16_Node000001_Node000006"><a xlink:title=" ">
<path fill="none" stroke="#63b8ff" d="M243.39,-335.84C259.83,-314.65 289.63,-276.24 307.32,-253.43"/>
<polygon fill="#63b8ff" stroke="#63b8ff" points="310.01,-255.68 313.38,-245.63 304.48,-251.39 310.01,-255.68"/>
</a>
</g>
</g>
<!-- Node3 -->
<g id="Node000003" class="node">
<title>Node3</title>
<g id="a_Node000003"><a xlink:href="_strip_data_interface_8hpp.html" target="_top" xlink:title=" ">
<polygon fill="white" stroke="#666666" points="263.75,-132 149.5,-132 149.5,-112 263.75,-112 263.75,-132"/>
<text text-anchor="middle" x="206.62" y="-118.5" font-family="Helvetica,sans-Serif" font-size="10.00">StripDataInterface.hpp</text>
</a>
</g>
</g>
<!-- Node2&#45;&gt;Node3 -->
<g id="edge2_Node000002_Node000003" class="edge">
<title>Node2&#45;&gt;Node3</title>
<g id="a_edge2_Node000002_Node000003"><a xlink:title=" ">
<path fill="none" stroke="#63b8ff" d="M170.44,-279.6C153.77,-272.09 132.1,-260.14 117.62,-244 93.89,-217.52 72.62,-197.4 92.62,-168 103.33,-152.26 120.47,-142.03 138.24,-135.38"/>
<polygon fill="#63b8ff" stroke="#63b8ff" points="139.23,-138.74 147.6,-132.25 137.01,-132.1 139.23,-138.74"/>
</a>
</g>
</g>
<!-- Node5 -->
<g id="Node000005" class="node">
<title>Node5</title>
<g id="a_Node000005"><a xlink:title=" ">
<polygon fill="#e0e0e0" stroke="#999999" points="45.25,-244 0,-244 0,-224 45.25,-224 45.25,-244"/>
<text text-anchor="middle" x="22.62" y="-230.5" font-family="Helvetica,sans-Serif" font-size="10.00">cstring</text>
</a>
</g>
</g>
<!-- Node2&#45;&gt;Node5 -->
<g id="edge4_Node000002_Node000005" class="edge">
<title>Node2&#45;&gt;Node5</title>
<g id="a_edge4_Node000002_Node000005"><a xlink:title=" ">
<path fill="none" stroke="#63b8ff" d="M164.66,-279.59C134.49,-270.12 88.02,-255.53 56.51,-245.64"/>
<polygon fill="#63b8ff" stroke="#63b8ff" points="57.68,-242.34 47.09,-242.68 55.58,-249.01 57.68,-242.34"/>
</a>
</g>
</g>
<!-- Node2&#45;&gt;Node6 -->
<g id="edge5_Node000002_Node000006" class="edge">
<title>Node2&#45;&gt;Node6</title>
<g id="a_edge5_Node000002_Node000006"><a xlink:title=" ">
<path fill="none" stroke="#63b8ff" d="M216.75,-279.59C236.66,-271.13 266.18,-258.58 288.83,-248.94"/>
<polygon fill="#63b8ff" stroke="#63b8ff" points="290.1,-252.21 297.94,-245.07 287.37,-245.76 290.1,-252.21"/>
</a>
</g>
</g>
<!-- Node10 -->
<g id="Node000010" class="node">
<title>Node10</title>
<g id="a_Node000010"><a xlink:href="_strip_animation_manager_8hpp.html" target="_top" xlink:title=" ">
<polygon fill="white" stroke="#666666" points="262.62,-244 126.62,-244 126.62,-224 262.62,-224 262.62,-244"/>
<text text-anchor="middle" x="194.62" y="-230.5" font-family="Helvetica,sans-Serif" font-size="10.00">StripAnimationManager.hpp</text>
</a>
</g>
</g>
<!-- Node2&#45;&gt;Node10 -->
<g id="edge11_Node000002_Node000010" class="edge">
<title>Node2&#45;&gt;Node10</title>
<g id="a_edge11_Node000002_Node000010"><a xlink:title=" ">
<path fill="none" stroke="#63b8ff" d="M194.62,-279.59C194.62,-273.01 194.62,-263.96 194.62,-255.73"/>
<polygon fill="#63b8ff" stroke="#63b8ff" points="198.13,-255.81 194.63,-245.81 191.13,-255.81 198.13,-255.81"/>
</a>
</g>
</g>
<!-- Node4 -->
<g id="Node000004" class="node">
<title>Node4</title>
<g id="a_Node000004"><a xlink:title=" ">
<polygon fill="#e0e0e0" stroke="#999999" points="351.25,-20 306,-20 306,0 351.25,0 351.25,-20"/>
<text text-anchor="middle" x="328.62" y="-6.5" font-family="Helvetica,sans-Serif" font-size="10.00">cstdint</text>
</a>
</g>
</g>
<!-- Node3&#45;&gt;Node4 -->
<g id="edge3_Node000003_Node000004" class="edge">
<title>Node3&#45;&gt;Node4</title>
<g id="a_edge3_Node000003_Node000004"><a xlink:title=" ">
<path fill="none" stroke="#63b8ff" d="M213.21,-111.94C223.07,-98.74 242.63,-73.86 262.62,-56 274.95,-44.99 290.1,-34.48 302.77,-26.39"/>
<polygon fill="#63b8ff" stroke="#63b8ff" points="304.38,-29.52 311.02,-21.26 300.68,-23.57 304.38,-29.52"/>
</a>
</g>
</g>
<!-- Node7 -->
<g id="Node000007" class="node">
<title>Node7</title>
<g id="a_Node000007"><a xlink:href="_color_8hpp.html" target="_top" xlink:title=" ">
<polygon fill="white" stroke="#666666" points="429.62,-188 371.62,-188 371.62,-168 429.62,-168 429.62,-188"/>
<text text-anchor="middle" x="400.62" y="-174.5" font-family="Helvetica,sans-Serif" font-size="10.00">Color.hpp</text>
</a>
</g>
</g>
<!-- Node6&#45;&gt;Node7 -->
<g id="edge6_Node000006_Node000007" class="edge">
<title>Node6&#45;&gt;Node7</title>
<g id="a_edge6_Node000006_Node000007"><a xlink:title=" ">
<path fill="none" stroke="#63b8ff" d="M335.39,-223.59C346.98,-215.67 363.82,-204.16 377.49,-194.82"/>
<polygon fill="#63b8ff" stroke="#63b8ff" points="379.23,-197.87 385.51,-189.33 375.28,-192.09 379.23,-197.87"/>
</a>
</g>
</g>
<!-- Node7&#45;&gt;Node4 -->
<g id="edge7_Node000007_Node000004" class="edge">
<title>Node7&#45;&gt;Node4</title>
<g id="a_edge7_Node000007_Node000004"><a xlink:title=" ">
<path fill="none" stroke="#63b8ff" d="M402.78,-167.75C407.21,-146.44 415.3,-92.88 394.62,-56 387.19,-42.73 374.01,-32.57 361.37,-25.29"/>
<polygon fill="#63b8ff" stroke="#63b8ff" points="363.29,-22.35 352.81,-20.78 360.02,-28.54 363.29,-22.35"/>
</a>
</g>
</g>
<!-- Node8 -->
<g id="Node000008" class="node">
<title>Node8</title>
<g id="a_Node000008"><a xlink:href="_color_correction_8hpp.html" target="_top" xlink:title=" ">
<polygon fill="white" stroke="#666666" points="385.12,-132 282.12,-132 282.12,-112 385.12,-112 385.12,-132"/>
<text text-anchor="middle" x="333.62" y="-118.5" font-family="Helvetica,sans-Serif" font-size="10.00">ColorCorrection.hpp</text>
</a>
</g>
</g>
<!-- Node7&#45;&gt;Node8 -->
<g id="edge8_Node000007_Node000008" class="edge">
<title>Node7&#45;&gt;Node8</title>
<g id="a_edge8_Node000007_Node000008"><a xlink:title=" ">
<path fill="none" stroke="#63b8ff" d="M388.95,-167.59C379.35,-159.85 365.5,-148.69 354.06,-139.47"/>
<polygon fill="#63b8ff" stroke="#63b8ff" points="356.32,-136.8 346.34,-133.25 351.93,-142.25 356.32,-136.8"/>
</a>
</g>
</g>
<!-- Node9 -->
<g id="Node000009" class="node">
<title>Node9</title>
<g id="a_Node000009"><a xlink:href="_gamma_correction_8hpp.html" target="_top" xlink:title=" ">
<polygon fill="white" stroke="#666666" points="385.75,-76 271.5,-76 271.5,-56 385.75,-56 385.75,-76"/>
<text text-anchor="middle" x="328.62" y="-62.5" font-family="Helvetica,sans-Serif" font-size="10.00">GammaCorrection.hpp</text>
</a>
</g>
</g>
<!-- Node8&#45;&gt;Node9 -->
<g id="edge9_Node000008_Node000009" class="edge">
<title>Node8&#45;&gt;Node9</title>
<g id="a_edge9_Node000008_Node000009"><a xlink:title=" ">
<path fill="none" stroke="#63b8ff" d="M332.75,-111.59C332.14,-105.01 331.31,-95.96 330.54,-87.73"/>
<polygon fill="#63b8ff" stroke="#63b8ff" points="334.03,-87.44 329.63,-77.81 327.06,-88.09 334.03,-87.44"/>
</a>
</g>
</g>
<!-- Node9&#45;&gt;Node4 -->
<g id="edge10_Node000009_Node000004" class="edge">
<title>Node9&#45;&gt;Node4</title>
<g id="a_edge10_Node000009_Node000004"><a xlink:title=" ">
<path fill="none" stroke="#63b8ff" d="M328.62,-55.59C328.62,-49.01 328.62,-39.96 328.62,-31.73"/>
<polygon fill="#63b8ff" stroke="#63b8ff" points="332.13,-31.81 328.63,-21.81 325.13,-31.81 332.13,-31.81"/>
</a>
</g>
</g>
<!-- Node11 -->
<g id="Node000011" class="node">
<title>Node11</title>
<g id="a_Node000011"><a xlink:title=" ">
<polygon fill="#e0e0e0" stroke="#999999" points="353.38,-188 287.88,-188 287.88,-168 353.38,-168 353.38,-188"/>
<text text-anchor="middle" x="320.62" y="-174.5" font-family="Helvetica,sans-Serif" font-size="10.00">string_view</text>
</a>
</g>
</g>
<!-- Node10&#45;&gt;Node11 -->
<g id="edge12_Node000010_Node000011" class="edge">
<title>Node10&#45;&gt;Node11</title>
<g id="a_edge12_Node000010_Node000011"><a xlink:title=" ">
<path fill="none" stroke="#63b8ff" d="M216.57,-223.59C236.33,-215.13 265.62,-202.58 288.09,-192.94"/>
<polygon fill="#63b8ff" stroke="#63b8ff" points="289.3,-196.23 297.12,-189.08 286.54,-189.8 289.3,-196.23"/>
</a>
</g>
</g>
<!-- Node12 -->
<g id="Node000012" class="node">
<title>Node12</title>
<g id="a_Node000012"><a xlink:title=" ">
<polygon fill="#e0e0e0" stroke="#999999" points="153.25,-188 102,-188 102,-168 153.25,-168 153.25,-188"/>
<text text-anchor="middle" x="127.62" y="-174.5" font-family="Helvetica,sans-Serif" font-size="10.00">memory</text>
</a>
</g>
</g>
<!-- Node10&#45;&gt;Node12 -->
<g id="edge13_Node000010_Node000012" class="edge">
<title>Node10&#45;&gt;Node12</title>
<g id="a_edge13_Node000010_Node000012"><a xlink:title=" ">
<path fill="none" stroke="#63b8ff" d="M182.95,-223.59C173.35,-215.85 159.5,-204.69 148.06,-195.47"/>
<polygon fill="#63b8ff" stroke="#63b8ff" points="150.32,-192.8 140.34,-189.25 145.93,-198.25 150.32,-192.8"/>
</a>
</g>
</g>
<!-- Node13 -->
<g id="Node000013" class="node">
<title>Node13</title>
<g id="a_Node000013"><a xlink:href="_strip_animation_8hpp.html" target="_top" xlink:title=" ">
<polygon fill="white" stroke="#666666" points="269.88,-188 171.38,-188 171.38,-168 269.88,-168 269.88,-188"/>
<text text-anchor="middle" x="220.62" y="-174.5" font-family="Helvetica,sans-Serif" font-size="10.00">StripAnimation.hpp</text>
</a>
</g>
</g>
<!-- Node10&#45;&gt;Node13 -->
<g id="edge14_Node000010_Node000013" class="edge">
<title>Node10&#45;&gt;Node13</title>
<g id="a_edge14_Node000010_Node000013"><a xlink:title=" ">
<path fill="none" stroke="#63b8ff" d="M199.15,-223.59C202.47,-216.7 207.09,-207.1 211.2,-198.57"/>
<polygon fill="#63b8ff" stroke="#63b8ff" points="214.31,-200.19 215.49,-189.66 208,-197.15 214.31,-200.19"/>
</a>
</g>
</g>
<!-- Node13&#45;&gt;Node3 -->
<g id="edge15_Node000013_Node000003" class="edge">
<title>Node13&#45;&gt;Node3</title>
<g id="a_edge15_Node000013_Node000003"><a xlink:title=" ">
<path fill="none" stroke="#63b8ff" d="M218.19,-167.59C216.46,-160.93 214.08,-151.75 211.92,-143.44"/>
<polygon fill="#63b8ff" stroke="#63b8ff" points="215.31,-142.56 209.42,-133.76 208.54,-144.32 215.31,-142.56"/>
</a>
</g>
</g>
</g>
</svg>
</svg>

<style type='text/css'>
<![CDATA[
[data-mouse-over-selected='false'] { opacity: 0.7; }
[data-mouse-over-selected='true']  { opacity: 1.0; }
]]>
</style>
<script type="application/ecmascript"><![CDATA[
document.addEventListener('DOMContentLoaded', (event) => {
  highlightEdges();
  highlightAdjacentNodes();
});
]]></script>
</svg>
