<?xml version="1.0" encoding="UTF-8" standalone="no"?>
<!DOCTYPE svg PUBLIC "-//W3C//DTD SVG 1.1//EN"
 "http://www.w3.org/Graphics/SVG/1.1/DTD/svg11.dtd">
<!-- Generated by graphviz version 12.1.2 (20240928.0832)
 -->
<!-- Title: LIBRARIES/JLib/JLED/include/GammaCorrection.hpp Pages: 1 -->
<svg width="266pt" height="380pt"
 viewBox="0.00 0.00 265.88 380.00" xmlns="http://www.w3.org/2000/svg" xmlns:xlink="http://www.w3.org/1999/xlink">

<svg id="main" version="1.1" xmlns="http://www.w3.org/2000/svg" xmlns:xlink="http://www.w3.org/1999/xlink" xml:space="preserve" onload="init(evt)">
<style type="text/css"><![CDATA[
.node, .edge {opacity: 0.7;}
.node.selected, .edge.selected {opacity: 1;}
.edge:hover path { stroke: red; }
.edge:hover polygon { stroke: red; fill: red; }
]]></style>
<script type="application/ecmascript" xlink:href="svg.min.js"/>
<svg id="graph" class="graph">
<g id="graph0" class="graph" transform="scale(1 1) rotate(0) translate(4 376)">
<title>LIBRARIES/JLib/JLED/include/GammaCorrection.hpp</title>
<!-- Node1 -->
<g id="Node000001" class="node">
<title>Node1</title>
<g id="a_Node000001"><a xlink:title=" ">
<polygon fill="#999999" stroke="#666666" points="180.5,-372 29.5,-372 29.5,-340 180.5,-340 180.5,-372"/>
<text text-anchor="start" x="37.5" y="-358.5" font-family="Helvetica,sans-Serif" font-size="10.00">LIBRARIES/JLib/JLED</text>
<text text-anchor="middle" x="105" y="-346.5" font-family="Helvetica,sans-Serif" font-size="10.00">/include/GammaCorrection.hpp</text>
</a>
</g>
</g>
<!-- Node2 -->
<g id="Node000002" class="node">
<title>Node2</title>
<g id="a_Node000002"><a xlink:href="_color_correction_8hpp.html" target="_top" xlink:title=" ">
<polygon fill="white" stroke="#666666" points="174.88,-304 35.12,-304 35.12,-272 174.88,-272 174.88,-304"/>
<text text-anchor="start" x="43.12" y="-290.5" font-family="Helvetica,sans-Serif" font-size="10.00">LIBRARIES/JLib/JLED</text>
<text text-anchor="middle" x="105" y="-278.5" font-family="Helvetica,sans-Serif" font-size="10.00">/include/ColorCorrection.hpp</text>
</a>
</g>
</g>
<!-- Node1&#45;&gt;Node2 -->
<g id="edge1_Node000001_Node000002" class="edge">
<title>Node1&#45;&gt;Node2</title>
<g id="a_edge1_Node000001_Node000002"><a xlink:title=" ">
<path fill="none" stroke="#63b8ff" d="M105,-328.31C105,-320.12 105,-311.38 105,-304.22"/>
<polygon fill="#63b8ff" stroke="#63b8ff" points="101.5,-328.18 105,-338.18 108.5,-328.18 101.5,-328.18"/>
</a>
</g>
</g>
<!-- Node3 -->
<g id="Node000003" class="node">
<title>Node3</title>
<g id="a_Node000003"><a xlink:href="_color_8hpp.html" target="_top" xlink:title=" ">
<polygon fill="white" stroke="#666666" points="164,-236 46,-236 46,-204 164,-204 164,-236"/>
<text text-anchor="start" x="54" y="-222.5" font-family="Helvetica,sans-Serif" font-size="10.00">LIBRARIES/JLib/JLED</text>
<text text-anchor="middle" x="105" y="-210.5" font-family="Helvetica,sans-Serif" font-size="10.00">/include/Color.hpp</text>
</a>
</g>
</g>
<!-- Node2&#45;&gt;Node3 -->
<g id="edge2_Node000002_Node000003" class="edge">
<title>Node2&#45;&gt;Node3</title>
<g id="a_edge2_Node000002_Node000003"><a xlink:title=" ">
<path fill="none" stroke="#63b8ff" d="M105,-260.31C105,-252.12 105,-243.38 105,-236.22"/>
<polygon fill="#63b8ff" stroke="#63b8ff" points="101.5,-260.18 105,-270.18 108.5,-260.18 101.5,-260.18"/>
</a>
</g>
</g>
<!-- Node4 -->
<g id="Node000004" class="node">
<title>Node4</title>
<g id="a_Node000004"><a xlink:href="_strip_types_8hpp.html" target="_top" xlink:title=" ">
<polygon fill="white" stroke="#666666" points="164,-168 46,-168 46,-136 164,-136 164,-168"/>
<text text-anchor="start" x="54" y="-154.5" font-family="Helvetica,sans-Serif" font-size="10.00">LIBRARIES/JLib/JLED</text>
<text text-anchor="middle" x="105" y="-142.5" font-family="Helvetica,sans-Serif" font-size="10.00">/include/StripTypes.hpp</text>
</a>
</g>
</g>
<!-- Node3&#45;&gt;Node4 -->
<g id="edge3_Node000003_Node000004" class="edge">
<title>Node3&#45;&gt;Node4</title>
<g id="a_edge3_Node000003_Node000004"><a xlink:title=" ">
<path fill="none" stroke="#63b8ff" d="M105,-192.31C105,-184.12 105,-175.38 105,-168.22"/>
<polygon fill="#63b8ff" stroke="#63b8ff" points="101.5,-192.18 105,-202.18 108.5,-192.18 101.5,-192.18"/>
</a>
</g>
</g>
<!-- Node5 -->
<g id="Node000005" class="node">
<title>Node5</title>
<g id="a_Node000005"><a xlink:href="_d_m_a_strip_8hpp.html" target="_top" xlink:title=" ">
<polygon fill="white" stroke="#666666" points="118,-32 0,-32 0,0 118,0 118,-32"/>
<text text-anchor="start" x="8" y="-18.5" font-family="Helvetica,sans-Serif" font-size="10.00">LIBRARIES/JLib/JLED</text>
<text text-anchor="middle" x="59" y="-6.5" font-family="Helvetica,sans-Serif" font-size="10.00">/include/DMAStrip.hpp</text>
</a>
</g>
</g>
<!-- Node4&#45;&gt;Node5 -->
<g id="edge4_Node000004_Node000005" class="edge">
<title>Node4&#45;&gt;Node5</title>
<g id="a_edge4_Node000004_Node000005"><a xlink:title=" ">
<path fill="none" stroke="#63b8ff" d="M90.07,-125.97C85.71,-117.89 81.25,-108.75 78,-100 69.5,-77.14 64.06,-49.27 61.27,-32.34"/>
<polygon fill="#63b8ff" stroke="#63b8ff" points="86.94,-127.54 94.89,-134.55 93.05,-124.11 86.94,-127.54"/>
</a>
</g>
</g>
<!-- Node6 -->
<g id="Node000006" class="node">
<title>Node6</title>
<g id="a_Node000006"><a xlink:href="_w_s28xx_strip_8hpp.html" target="_top" xlink:title=" ">
<polygon fill="white" stroke="#666666" points="216.62,-100 87.38,-100 87.38,-68 216.62,-68 216.62,-100"/>
<text text-anchor="start" x="95.38" y="-86.5" font-family="Helvetica,sans-Serif" font-size="10.00">LIBRARIES/JLib/JLED</text>
<text text-anchor="middle" x="152" y="-74.5" font-family="Helvetica,sans-Serif" font-size="10.00">/include/WS28xxStrip.hpp</text>
</a>
</g>
</g>
<!-- Node4&#45;&gt;Node6 -->
<g id="edge5_Node000004_Node000006" class="edge">
<title>Node4&#45;&gt;Node6</title>
<g id="a_edge5_Node000004_Node000006"><a xlink:title=" ">
<path fill="none" stroke="#63b8ff" d="M122.39,-126.59C128.67,-117.75 135.59,-108.04 141.16,-100.22"/>
<polygon fill="#63b8ff" stroke="#63b8ff" points="119.73,-124.28 116.78,-134.46 125.43,-128.34 119.73,-124.28"/>
</a>
</g>
</g>
<!-- Node6&#45;&gt;Node5 -->
<g id="edge6_Node000006_Node000005" class="edge">
<title>Node6&#45;&gt;Node5</title>
<g id="a_edge6_Node000006_Node000005"><a xlink:title=" ">
<path fill="none" stroke="#63b8ff" d="M121.21,-61.15C107.97,-51.75 92.81,-41 80.78,-32.45"/>
<polygon fill="#63b8ff" stroke="#63b8ff" points="119.02,-63.88 129.2,-66.82 123.07,-58.17 119.02,-63.88"/>
</a>
</g>
</g>
<!-- Node7 -->
<g id="Node000007" class="node">
<title>Node7</title>
<g id="a_Node000007"><a xlink:href="_strip_builder_8hpp.html" target="_top" xlink:title=" ">
<polygon fill="white" stroke="#666666" points="257.88,-32 136.12,-32 136.12,0 257.88,0 257.88,-32"/>
<text text-anchor="start" x="144.12" y="-18.5" font-family="Helvetica,sans-Serif" font-size="10.00">LIBRARIES/JLib/JLED</text>
<text text-anchor="middle" x="197" y="-6.5" font-family="Helvetica,sans-Serif" font-size="10.00">/include/StripBuilder.hpp</text>
</a>
</g>
</g>
<!-- Node6&#45;&gt;Node7 -->
<g id="edge7_Node000006_Node000007" class="edge">
<title>Node6&#45;&gt;Node7</title>
<g id="a_edge7_Node000006_Node000007"><a xlink:title=" ">
<path fill="none" stroke="#63b8ff" d="M168.84,-58.3C174.81,-49.55 181.35,-39.96 186.62,-32.22"/>
<polygon fill="#63b8ff" stroke="#63b8ff" points="166.03,-56.21 163.29,-66.44 171.81,-60.15 166.03,-56.21"/>
</a>
</g>
</g>
</g>
</svg>
</svg>

<style type='text/css'>
<![CDATA[
[data-mouse-over-selected='false'] { opacity: 0.7; }
[data-mouse-over-selected='true']  { opacity: 1.0; }
]]>
</style>
<script type="application/ecmascript"><![CDATA[
document.addEventListener('DOMContentLoaded', (event) => {
  highlightEdges();
  highlightAdjacentNodes();
});
]]></script>
</svg>
