<?xml version="1.0" encoding="UTF-8" standalone="no"?>
<!DOCTYPE svg PUBLIC "-//W3C//DTD SVG 1.1//EN"
 "http://www.w3.org/Graphics/SVG/1.1/DTD/svg11.dtd">
<!-- Generated by graphviz version 12.1.2 (20240928.0832)
 -->
<!-- Title: LIBRARIES/JLib/JMQTT/include/MQTTInterface.hpp Pages: 1 -->
<svg width="273pt" height="152pt"
 viewBox="0.00 0.00 272.62 152.00" xmlns="http://www.w3.org/2000/svg" xmlns:xlink="http://www.w3.org/1999/xlink">
<g id="graph0" class="graph" transform="scale(1 1) rotate(0) translate(4 148)">
<title>LIBRARIES/JLib/JMQTT/include/MQTTInterface.hpp</title>
<!-- Node1 -->
<g id="Node000001" class="node">
<title>Node1</title>
<g id="a_Node000001"><a xlink:title=" ">
<polygon fill="#999999" stroke="#666666" points="167.88,-144 30.38,-144 30.38,-112 167.88,-112 167.88,-144"/>
<text text-anchor="start" x="38.38" y="-130.5" font-family="Helvetica,sans-Serif" font-size="10.00">LIBRARIES/JLib/JMQTT</text>
<text text-anchor="middle" x="99.12" y="-118.5" font-family="Helvetica,sans-Serif" font-size="10.00">/include/MQTTInterface.hpp</text>
</a>
</g>
</g>
<!-- Node2 -->
<g id="Node000002" class="node">
<title>Node2</title>
<g id="a_Node000002"><a xlink:title=" ">
<polygon fill="#e0e0e0" stroke="#999999" points="42.25,-76 0,-76 0,-56 42.25,-56 42.25,-76"/>
<text text-anchor="middle" x="21.12" y="-62.5" font-family="Helvetica,sans-Serif" font-size="10.00">cstdio</text>
</a>
</g>
</g>
<!-- Node1&#45;&gt;Node2 -->
<g id="edge1_Node000001_Node000002" class="edge">
<title>Node1&#45;&gt;Node2</title>
<g id="a_edge1_Node000001_Node000002"><a xlink:title=" ">
<path fill="none" stroke="#63b8ff" d="M79.04,-111.55C67.75,-102.87 53.68,-92.04 42.23,-83.24"/>
<polygon fill="#63b8ff" stroke="#63b8ff" points="44.62,-80.65 34.56,-77.33 40.35,-86.2 44.62,-80.65"/>
</a>
</g>
</g>
<!-- Node3 -->
<g id="Node000003" class="node">
<title>Node3</title>
<g id="a_Node000003"><a xlink:title=" ">
<polygon fill="#e0e0e0" stroke="#999999" points="137.88,-76 60.38,-76 60.38,-56 137.88,-56 137.88,-76"/>
<text text-anchor="middle" x="99.12" y="-62.5" font-family="Helvetica,sans-Serif" font-size="10.00">MQTTClient.h</text>
</a>
</g>
</g>
<!-- Node1&#45;&gt;Node3 -->
<g id="edge2_Node000001_Node000003" class="edge">
<title>Node1&#45;&gt;Node3</title>
<g id="a_edge2_Node000001_Node000003"><a xlink:title=" ">
<path fill="none" stroke="#63b8ff" d="M99.12,-111.55C99.12,-104.34 99.12,-95.66 99.12,-87.88"/>
<polygon fill="#63b8ff" stroke="#63b8ff" points="102.63,-87.92 99.13,-77.92 95.63,-87.92 102.63,-87.92"/>
</a>
</g>
</g>
<!-- Node4 -->
<g id="Node000004" class="node">
<title>Node4</title>
<g id="a_Node000004"><a xlink:href="_countdown_timer_8hpp.html" target="_top" xlink:title=" ">
<polygon fill="white" stroke="#666666" points="264.62,-76 155.62,-76 155.62,-56 264.62,-56 264.62,-76"/>
<text text-anchor="middle" x="210.12" y="-62.5" font-family="Helvetica,sans-Serif" font-size="10.00">CountdownTimer.hpp</text>
</a>
</g>
</g>
<!-- Node1&#45;&gt;Node4 -->
<g id="edge3_Node000001_Node000004" class="edge">
<title>Node1&#45;&gt;Node4</title>
<g id="a_edge3_Node000001_Node000004"><a xlink:title=" ">
<path fill="none" stroke="#63b8ff" d="M127.71,-111.55C144.73,-102.35 166.21,-90.74 182.97,-81.68"/>
<polygon fill="#63b8ff" stroke="#63b8ff" points="184.26,-84.96 191.39,-77.13 180.93,-78.8 184.26,-84.96"/>
</a>
</g>
</g>
<!-- Node5 -->
<g id="Node000005" class="node">
<title>Node5</title>
<g id="a_Node000005"><a xlink:title=" ">
<polygon fill="#e0e0e0" stroke="#999999" points="232.75,-20 187.5,-20 187.5,0 232.75,0 232.75,-20"/>
<text text-anchor="middle" x="210.12" y="-6.5" font-family="Helvetica,sans-Serif" font-size="10.00">cstdint</text>
</a>
</g>
</g>
<!-- Node4&#45;&gt;Node5 -->
<g id="edge4_Node000004_Node000005" class="edge">
<title>Node4&#45;&gt;Node5</title>
<g id="a_edge4_Node000004_Node000005"><a xlink:title=" ">
<path fill="none" stroke="#63b8ff" d="M210.12,-55.59C210.12,-49.01 210.12,-39.96 210.12,-31.73"/>
<polygon fill="#63b8ff" stroke="#63b8ff" points="213.63,-31.81 210.13,-21.81 206.63,-31.81 213.63,-31.81"/>
</a>
</g>
</g>
</g>
</svg>
