<?xml version="1.0" encoding="UTF-8" standalone="no"?>
<!DOCTYPE svg PUBLIC "-//W3C//DTD SVG 1.1//EN"
 "http://www.w3.org/Graphics/SVG/1.1/DTD/svg11.dtd">
<!-- Generated by graphviz version 12.1.2 (20240928.0832)
 -->
<!-- Title: LIBRARIES/JLib/JEthernet/src/NetConfig.cpp Pages: 1 -->
<svg width="194pt" height="208pt"
 viewBox="0.00 0.00 194.12 208.00" xmlns="http://www.w3.org/2000/svg" xmlns:xlink="http://www.w3.org/1999/xlink">

<svg id="main" version="1.1" xmlns="http://www.w3.org/2000/svg" xmlns:xlink="http://www.w3.org/1999/xlink" xml:space="preserve" onload="init(evt)">
<style type="text/css"><![CDATA[
.node, .edge {opacity: 0.7;}
.node.selected, .edge.selected {opacity: 1;}
.edge:hover path { stroke: red; }
.edge:hover polygon { stroke: red; fill: red; }
]]></style>
<script type="application/ecmascript" xlink:href="svg.min.js"/>
<svg id="graph" class="graph">
<g id="graph0" class="graph" transform="scale(1 1) rotate(0) translate(4 204)">
<title>LIBRARIES/JLib/JEthernet/src/NetConfig.cpp</title>
<!-- Node1 -->
<g id="Node000001" class="node">
<title>Node1</title>
<g id="a_Node000001"><a xlink:title=" ">
<polygon fill="#999999" stroke="#666666" points="135.25,-200 0,-200 0,-168 135.25,-168 135.25,-200"/>
<text text-anchor="start" x="8" y="-186.5" font-family="Helvetica,sans-Serif" font-size="10.00">LIBRARIES/JLib/JEthernet</text>
<text text-anchor="middle" x="67.62" y="-174.5" font-family="Helvetica,sans-Serif" font-size="10.00">/src/NetConfig.cpp</text>
</a>
</g>
</g>
<!-- Node2 -->
<g id="Node000002" class="node">
<title>Node2</title>
<g id="a_Node000002"><a xlink:title=" ">
<polygon fill="#e0e0e0" stroke="#999999" points="49.75,-132 7.5,-132 7.5,-112 49.75,-112 49.75,-132"/>
<text text-anchor="middle" x="28.62" y="-118.5" font-family="Helvetica,sans-Serif" font-size="10.00">cstdio</text>
</a>
</g>
</g>
<!-- Node1&#45;&gt;Node2 -->
<g id="edge1_Node000001_Node000002" class="edge">
<title>Node1&#45;&gt;Node2</title>
<g id="a_edge1_Node000001_Node000002"><a xlink:title=" ">
<path fill="none" stroke="#63b8ff" d="M57.58,-167.55C52.5,-159.74 46.3,-150.19 40.93,-141.94"/>
<polygon fill="#63b8ff" stroke="#63b8ff" points="43.95,-140.15 35.57,-133.68 38.08,-143.97 43.95,-140.15"/>
</a>
</g>
</g>
<!-- Node3 -->
<g id="Node000003" class="node">
<title>Node3</title>
<g id="a_Node000003"><a xlink:href="_net_config_8hpp.html" target="_top" xlink:title=" ">
<polygon fill="white" stroke="#666666" points="147.12,-132 68.12,-132 68.12,-112 147.12,-112 147.12,-132"/>
<text text-anchor="middle" x="107.62" y="-118.5" font-family="Helvetica,sans-Serif" font-size="10.00">NetConfig.hpp</text>
</a>
</g>
</g>
<!-- Node1&#45;&gt;Node3 -->
<g id="edge2_Node000001_Node000003" class="edge">
<title>Node1&#45;&gt;Node3</title>
<g id="a_edge2_Node000001_Node000003"><a xlink:title=" ">
<path fill="none" stroke="#63b8ff" d="M77.93,-167.55C83.13,-159.74 89.5,-150.19 95,-141.94"/>
<polygon fill="#63b8ff" stroke="#63b8ff" points="97.88,-143.93 100.51,-133.67 92.05,-140.05 97.88,-143.93"/>
</a>
</g>
</g>
<!-- Node4 -->
<g id="Node000004" class="node">
<title>Node4</title>
<g id="a_Node000004"><a xlink:href="_net_i_p_8hpp.html" target="_top" xlink:title=" ">
<polygon fill="white" stroke="#666666" points="95,-76 36.25,-76 36.25,-56 95,-56 95,-76"/>
<text text-anchor="middle" x="65.62" y="-62.5" font-family="Helvetica,sans-Serif" font-size="10.00">NetIP.hpp</text>
</a>
</g>
</g>
<!-- Node3&#45;&gt;Node4 -->
<g id="edge3_Node000003_Node000004" class="edge">
<title>Node3&#45;&gt;Node4</title>
<g id="a_edge3_Node000003_Node000004"><a xlink:title=" ">
<path fill="none" stroke="#63b8ff" d="M100.31,-111.59C94.65,-104.32 86.64,-94.02 79.74,-85.15"/>
<polygon fill="#63b8ff" stroke="#63b8ff" points="82.69,-83.24 73.79,-77.49 77.16,-87.54 82.69,-83.24"/>
</a>
</g>
</g>
<!-- Node6 -->
<g id="Node000006" class="node">
<title>Node6</title>
<g id="a_Node000006"><a xlink:href="_net_m_a_c_8hpp.html" target="_top" xlink:title=" ">
<polygon fill="white" stroke="#666666" points="186.12,-76 113.12,-76 113.12,-56 186.12,-56 186.12,-76"/>
<text text-anchor="middle" x="149.62" y="-62.5" font-family="Helvetica,sans-Serif" font-size="10.00">NetMAC.hpp</text>
</a>
</g>
</g>
<!-- Node3&#45;&gt;Node6 -->
<g id="edge5_Node000003_Node000006" class="edge">
<title>Node3&#45;&gt;Node6</title>
<g id="a_edge5_Node000003_Node000006"><a xlink:title=" ">
<path fill="none" stroke="#63b8ff" d="M114.94,-111.59C120.6,-104.32 128.61,-94.02 135.51,-85.15"/>
<polygon fill="#63b8ff" stroke="#63b8ff" points="138.09,-87.54 141.46,-77.49 132.56,-83.24 138.09,-87.54"/>
</a>
</g>
</g>
<!-- Node5 -->
<g id="Node000005" class="node">
<title>Node5</title>
<g id="a_Node000005"><a xlink:title=" ">
<polygon fill="#e0e0e0" stroke="#999999" points="130.25,-20 85,-20 85,0 130.25,0 130.25,-20"/>
<text text-anchor="middle" x="107.62" y="-6.5" font-family="Helvetica,sans-Serif" font-size="10.00">cstdint</text>
</a>
</g>
</g>
<!-- Node4&#45;&gt;Node5 -->
<g id="edge4_Node000004_Node000005" class="edge">
<title>Node4&#45;&gt;Node5</title>
<g id="a_edge4_Node000004_Node000005"><a xlink:title=" ">
<path fill="none" stroke="#63b8ff" d="M72.94,-55.59C78.6,-48.32 86.61,-38.02 93.51,-29.15"/>
<polygon fill="#63b8ff" stroke="#63b8ff" points="96.09,-31.54 99.46,-21.49 90.56,-27.24 96.09,-31.54"/>
</a>
</g>
</g>
<!-- Node6&#45;&gt;Node5 -->
<g id="edge6_Node000006_Node000005" class="edge">
<title>Node6&#45;&gt;Node5</title>
<g id="a_edge6_Node000006_Node000005"><a xlink:title=" ">
<path fill="none" stroke="#63b8ff" d="M142.31,-55.59C136.65,-48.32 128.64,-38.02 121.74,-29.15"/>
<polygon fill="#63b8ff" stroke="#63b8ff" points="124.69,-27.24 115.79,-21.49 119.16,-31.54 124.69,-27.24"/>
</a>
</g>
</g>
</g>
</svg>
</svg>

<style type='text/css'>
<![CDATA[
[data-mouse-over-selected='false'] { opacity: 0.7; }
[data-mouse-over-selected='true']  { opacity: 1.0; }
]]>
</style>
<script type="application/ecmascript"><![CDATA[
document.addEventListener('DOMContentLoaded', (event) => {
  highlightEdges();
  highlightAdjacentNodes();
});
]]></script>
</svg>
