<?xml version="1.0" encoding="UTF-8" standalone="no"?>
<!DOCTYPE svg PUBLIC "-//W3C//DTD SVG 1.1//EN"
 "http://www.w3.org/Graphics/SVG/1.1/DTD/svg11.dtd">
<!-- Generated by graphviz version 12.1.2 (20240928.0832)
 -->
<!-- Title: LIBRARIES/JLib/JEthernet/include/NetIP.hpp Pages: 1 -->
<svg width="600pt" height="244pt"
 viewBox="0.00 0.00 600.25 244.00" xmlns="http://www.w3.org/2000/svg" xmlns:xlink="http://www.w3.org/1999/xlink">
<g id="graph0" class="graph" transform="scale(1 1) rotate(0) translate(4 240)">
<title>LIBRARIES/JLib/JEthernet/include/NetIP.hpp</title>
<!-- Node1 -->
<g id="Node000001" class="node">
<title>Node1</title>
<g id="a_Node000001"><a xlink:title=" ">
<polygon fill="#999999" stroke="#666666" points="439.25,-236 304,-236 304,-204 439.25,-204 439.25,-236"/>
<text text-anchor="start" x="312" y="-222.5" font-family="Helvetica,sans-Serif" font-size="10.00">LIBRARIES/JLib/JEthernet</text>
<text text-anchor="middle" x="371.62" y="-210.5" font-family="Helvetica,sans-Serif" font-size="10.00">/include/NetIP.hpp</text>
</a>
</g>
</g>
<!-- Node2 -->
<g id="Node000002" class="node">
<title>Node2</title>
<g id="a_Node000002"><a xlink:href="_net_config_8hpp.html" target="_top" xlink:title=" ">
<polygon fill="white" stroke="#666666" points="286.25,-168 151,-168 151,-136 286.25,-136 286.25,-168"/>
<text text-anchor="start" x="159" y="-154.5" font-family="Helvetica,sans-Serif" font-size="10.00">LIBRARIES/JLib/JEthernet</text>
<text text-anchor="middle" x="218.62" y="-142.5" font-family="Helvetica,sans-Serif" font-size="10.00">/include/NetConfig.hpp</text>
</a>
</g>
</g>
<!-- Node1&#45;&gt;Node2 -->
<g id="edge1_Node000001_Node000002" class="edge">
<title>Node1&#45;&gt;Node2</title>
<g id="a_edge1_Node000001_Node000002"><a xlink:title=" ">
<path fill="none" stroke="#63b8ff" d="M325.32,-199.03C302.61,-189.23 275.67,-177.61 254.54,-168.49"/>
<polygon fill="#63b8ff" stroke="#63b8ff" points="323.8,-202.18 334.36,-202.93 326.57,-195.75 323.8,-202.18"/>
</a>
</g>
</g>
<!-- Node5 -->
<g id="Node000005" class="node">
<title>Node5</title>
<g id="a_Node000005"><a xlink:href="_net_sock_8hpp.html" target="_top" xlink:title=" ">
<polygon fill="white" stroke="#666666" points="439.25,-168 304,-168 304,-136 439.25,-136 439.25,-168"/>
<text text-anchor="start" x="312" y="-154.5" font-family="Helvetica,sans-Serif" font-size="10.00">LIBRARIES/JLib/JEthernet</text>
<text text-anchor="middle" x="371.62" y="-142.5" font-family="Helvetica,sans-Serif" font-size="10.00">/include/NetSock.hpp</text>
</a>
</g>
</g>
<!-- Node1&#45;&gt;Node5 -->
<g id="edge4_Node000001_Node000005" class="edge">
<title>Node1&#45;&gt;Node5</title>
<g id="a_edge4_Node000001_Node000005"><a xlink:title=" ">
<path fill="none" stroke="#63b8ff" d="M371.62,-192.31C371.62,-184.12 371.62,-175.38 371.62,-168.22"/>
<polygon fill="#63b8ff" stroke="#63b8ff" points="368.13,-192.18 371.63,-202.18 375.13,-192.18 368.13,-192.18"/>
</a>
</g>
</g>
<!-- Node8 -->
<g id="Node000008" class="node">
<title>Node8</title>
<g id="a_Node000008"><a xlink:href="_net_i_p_8cpp.html" target="_top" xlink:title=" ">
<polygon fill="white" stroke="#666666" points="592.25,-168 457,-168 457,-136 592.25,-136 592.25,-168"/>
<text text-anchor="start" x="465" y="-154.5" font-family="Helvetica,sans-Serif" font-size="10.00">LIBRARIES/JLib/JEthernet</text>
<text text-anchor="middle" x="524.62" y="-142.5" font-family="Helvetica,sans-Serif" font-size="10.00">/src/NetIP.cpp</text>
</a>
</g>
</g>
<!-- Node1&#45;&gt;Node8 -->
<g id="edge7_Node000001_Node000008" class="edge">
<title>Node1&#45;&gt;Node8</title>
<g id="a_edge7_Node000001_Node000008"><a xlink:title=" ">
<path fill="none" stroke="#63b8ff" d="M417.93,-199.03C440.64,-189.23 467.58,-177.61 488.71,-168.49"/>
<polygon fill="#63b8ff" stroke="#63b8ff" points="416.68,-195.75 408.89,-202.93 419.45,-202.18 416.68,-195.75"/>
</a>
</g>
</g>
<!-- Node3 -->
<g id="Node000003" class="node">
<title>Node3</title>
<g id="a_Node000003"><a xlink:href="_ethernet_h_c_8hpp.html" target="_top" xlink:title=" ">
<polygon fill="white" stroke="#666666" points="135.25,-100 0,-100 0,-68 135.25,-68 135.25,-100"/>
<text text-anchor="start" x="8" y="-86.5" font-family="Helvetica,sans-Serif" font-size="10.00">LIBRARIES/JLib/JEthernet</text>
<text text-anchor="middle" x="67.62" y="-74.5" font-family="Helvetica,sans-Serif" font-size="10.00">/include/EthernetHC.hpp</text>
</a>
</g>
</g>
<!-- Node2&#45;&gt;Node3 -->
<g id="edge2_Node000002_Node000003" class="edge">
<title>Node2&#45;&gt;Node3</title>
<g id="a_edge2_Node000002_Node000003"><a xlink:title=" ">
<path fill="none" stroke="#63b8ff" d="M172.93,-131.03C150.51,-121.23 123.92,-109.61 103.07,-100.49"/>
<polygon fill="#63b8ff" stroke="#63b8ff" points="171.27,-134.12 181.84,-134.92 174.07,-127.71 171.27,-134.12"/>
</a>
</g>
</g>
<!-- Node4 -->
<g id="Node000004" class="node">
<title>Node4</title>
<g id="a_Node000004"><a xlink:href="_net_config_8cpp.html" target="_top" xlink:title=" ">
<polygon fill="white" stroke="#666666" points="288.25,-100 153,-100 153,-68 288.25,-68 288.25,-100"/>
<text text-anchor="start" x="161" y="-86.5" font-family="Helvetica,sans-Serif" font-size="10.00">LIBRARIES/JLib/JEthernet</text>
<text text-anchor="middle" x="220.62" y="-74.5" font-family="Helvetica,sans-Serif" font-size="10.00">/src/NetConfig.cpp</text>
</a>
</g>
</g>
<!-- Node2&#45;&gt;Node4 -->
<g id="edge3_Node000002_Node000004" class="edge">
<title>Node2&#45;&gt;Node4</title>
<g id="a_edge3_Node000002_Node000004"><a xlink:title=" ">
<path fill="none" stroke="#63b8ff" d="M219.43,-124.31C219.68,-116.12 219.95,-107.38 220.16,-100.22"/>
<polygon fill="#63b8ff" stroke="#63b8ff" points="215.94,-124.08 219.13,-134.18 222.94,-124.29 215.94,-124.08"/>
</a>
</g>
</g>
<!-- Node6 -->
<g id="Node000006" class="node">
<title>Node6</title>
<g id="a_Node000006"><a xlink:href="_client_8hpp.html" target="_top" xlink:title=" ">
<polygon fill="white" stroke="#666666" points="434.75,-100 308.5,-100 308.5,-68 434.75,-68 434.75,-100"/>
<text text-anchor="start" x="316.5" y="-86.5" font-family="Helvetica,sans-Serif" font-size="10.00">LIBRARIES/JLib/JMQTT</text>
<text text-anchor="middle" x="371.62" y="-74.5" font-family="Helvetica,sans-Serif" font-size="10.00">/include/Client.hpp</text>
</a>
</g>
</g>
<!-- Node5&#45;&gt;Node6 -->
<g id="edge5_Node000005_Node000006" class="edge">
<title>Node5&#45;&gt;Node6</title>
<g id="a_edge5_Node000005_Node000006"><a xlink:title=" ">
<path fill="none" stroke="#63b8ff" d="M371.62,-124.31C371.62,-116.12 371.62,-107.38 371.62,-100.22"/>
<polygon fill="#63b8ff" stroke="#63b8ff" points="368.13,-124.18 371.63,-134.18 375.13,-124.18 368.13,-124.18"/>
</a>
</g>
</g>
<!-- Node7 -->
<g id="Node000007" class="node">
<title>Node7</title>
<g id="a_Node000007"><a xlink:href="_home_assistant_device_8hpp.html" target="_top" xlink:title=" ">
<polygon fill="white" stroke="#666666" points="456.5,-32 286.75,-32 286.75,0 456.5,0 456.5,-32"/>
<text text-anchor="start" x="294.75" y="-18.5" font-family="Helvetica,sans-Serif" font-size="10.00">LIBRARIES/JLib/JMQTT</text>
<text text-anchor="middle" x="371.62" y="-6.5" font-family="Helvetica,sans-Serif" font-size="10.00">/include/HomeAssistantDevice.hpp</text>
</a>
</g>
</g>
<!-- Node6&#45;&gt;Node7 -->
<g id="edge6_Node000006_Node000007" class="edge">
<title>Node6&#45;&gt;Node7</title>
<g id="a_edge6_Node000006_Node000007"><a xlink:title=" ">
<path fill="none" stroke="#63b8ff" d="M371.62,-56.31C371.62,-48.12 371.62,-39.38 371.62,-32.22"/>
<polygon fill="#63b8ff" stroke="#63b8ff" points="368.13,-56.18 371.63,-66.18 375.13,-56.18 368.13,-56.18"/>
</a>
</g>
</g>
</g>
</svg>
