<?xml version="1.0" encoding="UTF-8" standalone="no"?>
<!DOCTYPE svg PUBLIC "-//W3C//DTD SVG 1.1//EN"
 "http://www.w3.org/Graphics/SVG/1.1/DTD/svg11.dtd">
<!-- Generated by graphviz version 12.1.2 (20240928.0832)
 -->
<!-- Title: LIBRARIES/JLib/JLED/include/WS28xxStrip.hpp Pages: 1 -->
<svg width="266pt" height="108pt"
 viewBox="0.00 0.00 265.88 108.00" xmlns="http://www.w3.org/2000/svg" xmlns:xlink="http://www.w3.org/1999/xlink">
<g id="graph0" class="graph" transform="scale(1 1) rotate(0) translate(4 104)">
<title>LIBRARIES/JLib/JLED/include/WS28xxStrip.hpp</title>
<!-- Node1 -->
<g id="Node000001" class="node">
<title>Node1</title>
<g id="a_Node000001"><a xlink:title=" ">
<polygon fill="#999999" stroke="#666666" points="192.62,-100 63.38,-100 63.38,-68 192.62,-68 192.62,-100"/>
<text text-anchor="start" x="71.38" y="-86.5" font-family="Helvetica,sans-Serif" font-size="10.00">LIBRARIES/JLib/JLED</text>
<text text-anchor="middle" x="128" y="-74.5" font-family="Helvetica,sans-Serif" font-size="10.00">/include/WS28xxStrip.hpp</text>
</a>
</g>
</g>
<!-- Node2 -->
<g id="Node000002" class="node">
<title>Node2</title>
<g id="a_Node000002"><a xlink:href="_d_m_a_strip_8hpp.html" target="_top" xlink:title=" ">
<polygon fill="white" stroke="#666666" points="118,-32 0,-32 0,0 118,0 118,-32"/>
<text text-anchor="start" x="8" y="-18.5" font-family="Helvetica,sans-Serif" font-size="10.00">LIBRARIES/JLib/JLED</text>
<text text-anchor="middle" x="59" y="-6.5" font-family="Helvetica,sans-Serif" font-size="10.00">/include/DMAStrip.hpp</text>
</a>
</g>
</g>
<!-- Node1&#45;&gt;Node2 -->
<g id="edge1_Node000001_Node000002" class="edge">
<title>Node1&#45;&gt;Node2</title>
<g id="a_edge1_Node000001_Node000002"><a xlink:title=" ">
<path fill="none" stroke="#63b8ff" d="M103.94,-59.99C94.33,-50.79 83.52,-40.46 74.92,-32.22"/>
<polygon fill="#63b8ff" stroke="#63b8ff" points="101.26,-62.26 110.9,-66.65 106.1,-57.2 101.26,-62.26"/>
</a>
</g>
</g>
<!-- Node3 -->
<g id="Node000003" class="node">
<title>Node3</title>
<g id="a_Node000003"><a xlink:href="_strip_builder_8hpp.html" target="_top" xlink:title=" ">
<polygon fill="white" stroke="#666666" points="257.88,-32 136.12,-32 136.12,0 257.88,0 257.88,-32"/>
<text text-anchor="start" x="144.12" y="-18.5" font-family="Helvetica,sans-Serif" font-size="10.00">LIBRARIES/JLib/JLED</text>
<text text-anchor="middle" x="197" y="-6.5" font-family="Helvetica,sans-Serif" font-size="10.00">/include/StripBuilder.hpp</text>
</a>
</g>
</g>
<!-- Node1&#45;&gt;Node3 -->
<g id="edge2_Node000001_Node000003" class="edge">
<title>Node1&#45;&gt;Node3</title>
<g id="a_edge2_Node000001_Node000003"><a xlink:title=" ">
<path fill="none" stroke="#63b8ff" d="M152.06,-59.99C161.67,-50.79 172.48,-40.46 181.08,-32.22"/>
<polygon fill="#63b8ff" stroke="#63b8ff" points="149.9,-57.2 145.1,-66.65 154.74,-62.26 149.9,-57.2"/>
</a>
</g>
</g>
</g>
</svg>
