<?xml version="1.0" encoding="UTF-8" standalone="no"?>
<!DOCTYPE svg PUBLIC "-//W3C//DTD SVG 1.1//EN"
 "http://www.w3.org/Graphics/SVG/1.1/DTD/svg11.dtd">
<!-- Generated by graphviz version 12.1.2 (20240928.0832)
 -->
<!-- Title: JLED::DMAStrip&lt; StripBase &gt; Pages: 1 -->
<svg width="152pt" height="336pt"
 viewBox="0.00 0.00 152.00 336.00" xmlns="http://www.w3.org/2000/svg" xmlns:xlink="http://www.w3.org/1999/xlink">
<g id="graph0" class="graph" transform="scale(1 1) rotate(0) translate(4 332)">
<title>JLED::DMAStrip&lt; StripBase &gt;</title>
<!-- Node1 -->
<g id="Node000001" class="node">
<title>Node1</title>
<g id="a_Node000001"><a xlink:title=" ">
<polygon fill="#999999" stroke="none" points="144,-240 0,-240 0,0 144,0 144,-240"/>
<text text-anchor="start" x="4.88" y="-226.5" font-family="Helvetica,sans-Serif" font-size="10.00">JLED::DMAStrip&lt; StripBase &gt;</text>
<text text-anchor="start" x="70.5" y="-210.5" font-family="Helvetica,sans-Serif" font-size="10.00"> </text>
<text text-anchor="start" x="6" y="-194.5" font-family="Helvetica,sans-Serif" font-size="10.00">+</text>
<text text-anchor="start" x="18" y="-194.5" font-family="Helvetica,sans-Serif" font-size="10.00">ASSERT_STRIPBASE_IS</text>
<text text-anchor="start" x="18" y="-182.5" font-family="Helvetica,sans-Serif" font-size="10.00">_DERIVED()</text>
<text text-anchor="start" x="6" y="-166.5" font-family="Helvetica,sans-Serif" font-size="10.00">+</text>
<text text-anchor="start" x="18" y="-166.5" font-family="Helvetica,sans-Serif" font-size="10.00">colorToDMATiming()</text>
<text text-anchor="start" x="6" y="-150.5" font-family="Helvetica,sans-Serif" font-size="10.00">+</text>
<text text-anchor="start" x="18" y="-150.5" font-family="Helvetica,sans-Serif" font-size="10.00">setStartDMACallback()</text>
<text text-anchor="start" x="6" y="-134.5" font-family="Helvetica,sans-Serif" font-size="10.00">+</text>
<text text-anchor="start" x="18" y="-134.5" font-family="Helvetica,sans-Serif" font-size="10.00">setStopDMACallback()</text>
<text text-anchor="start" x="6" y="-118.5" font-family="Helvetica,sans-Serif" font-size="10.00">+</text>
<text text-anchor="start" x="18" y="-118.5" font-family="Helvetica,sans-Serif" font-size="10.00">setARR()</text>
<text text-anchor="start" x="6" y="-102.5" font-family="Helvetica,sans-Serif" font-size="10.00">+</text>
<text text-anchor="start" x="18" y="-102.5" font-family="Helvetica,sans-Serif" font-size="10.00">setDMABuffer()</text>
<text text-anchor="start" x="6" y="-86.5" font-family="Helvetica,sans-Serif" font-size="10.00">+</text>
<text text-anchor="start" x="18" y="-86.5" font-family="Helvetica,sans-Serif" font-size="10.00">display()</text>
<text text-anchor="start" x="6" y="-70.5" font-family="Helvetica,sans-Serif" font-size="10.00">+</text>
<text text-anchor="start" x="18" y="-70.5" font-family="Helvetica,sans-Serif" font-size="10.00">displayInProgress()</text>
<text text-anchor="start" x="6" y="-54.5" font-family="Helvetica,sans-Serif" font-size="10.00">+</text>
<text text-anchor="start" x="18" y="-54.5" font-family="Helvetica,sans-Serif" font-size="10.00">onDMAInterrupt()</text>
<text text-anchor="start" x="6" y="-38.5" font-family="Helvetica,sans-Serif" font-size="10.00">+</text>
<text text-anchor="start" x="18" y="-38.5" font-family="Helvetica,sans-Serif" font-size="10.00">DMAStrip()</text>
<text text-anchor="start" x="6" y="-22.5" font-family="Helvetica,sans-Serif" font-size="10.00">+</text>
<text text-anchor="start" x="18" y="-22.5" font-family="Helvetica,sans-Serif" font-size="10.00">DMAStrip()</text>
<text text-anchor="start" x="6" y="-6.5" font-family="Helvetica,sans-Serif" font-size="10.00">+</text>
<text text-anchor="start" x="18" y="-6.5" font-family="Helvetica,sans-Serif" font-size="10.00">calcDMABufferSize()</text>
<polygon fill="#666666" stroke="#666666" points="0,-222 0,-222 144,-222 144,-222 0,-222"/>
<polygon fill="#666666" stroke="#666666" points="0,-206 0,-206 144,-206 144,-206 0,-206"/>
<polygon fill="none" stroke="#666666" points="0,0 0,-240 144,-240 144,0 0,0"/>
</a>
</g>
</g>
<!-- Node2 -->
<g id="Node000002" class="node">
<title>Node2</title>
<g id="a_Node000002"><a xlink:title=" ">
<polygon fill="white" stroke="none" points="98,-328 46,-328 46,-276 98,-276 98,-328"/>
<text text-anchor="start" x="50.62" y="-314.5" font-family="Helvetica,sans-Serif" font-size="10.00">StripBase</text>
<text text-anchor="start" x="70.5" y="-298.5" font-family="Helvetica,sans-Serif" font-size="10.00"> </text>
<text text-anchor="start" x="70.5" y="-282.5" font-family="Helvetica,sans-Serif" font-size="10.00"> </text>
<polygon fill="#666666" stroke="#666666" points="46,-310 46,-310 98,-310 98,-310 46,-310"/>
<polygon fill="#666666" stroke="#666666" points="46,-294 46,-294 98,-294 98,-294 46,-294"/>
<polygon fill="none" stroke="#666666" points="46,-276 46,-328 98,-328 98,-276 46,-276"/>
</a>
</g>
</g>
<!-- Node2&#45;&gt;Node1 -->
<g id="edge1_Node000001_Node000002" class="edge">
<title>Node2&#45;&gt;Node1</title>
<g id="a_edge1_Node000001_Node000002"><a xlink:title=" ">
<path fill="none" stroke="#63b8ff" d="M72,-265.02C72,-257.34 72,-248.82 72,-239.88"/>
<polygon fill="none" stroke="#63b8ff" points="68.5,-264.84 72,-274.84 75.5,-264.84 68.5,-264.84"/>
</a>
</g>
</g>
</g>
</svg>
