<?xml version="1.0" encoding="UTF-8" standalone="no"?>
<!DOCTYPE svg PUBLIC "-//W3C//DTD SVG 1.1//EN"
 "http://www.w3.org/Graphics/SVG/1.1/DTD/svg11.dtd">
<!-- Generated by graphviz version 12.1.2 (20240928.0832)
 -->
<!-- Title: JETHERNET::NetIP Pages: 1 -->
<svg width="108pt" height="252pt"
 viewBox="0.00 0.00 108.00 252.00" xmlns="http://www.w3.org/2000/svg" xmlns:xlink="http://www.w3.org/1999/xlink">
<g id="graph0" class="graph" transform="scale(1 1) rotate(0) translate(4 248)">
<title>JETHERNET::NetIP</title>
<!-- Node1 -->
<g id="Node000001" class="node">
<title>Node1</title>
<g id="a_Node000001"><a xlink:title="IP address stored internally as a uint32.">
<polygon fill="#999999" stroke="none" points="100,-244 0,-244 0,0 100,0 100,-244"/>
<text text-anchor="start" x="4.62" y="-230.5" font-family="Helvetica,sans-Serif" font-size="10.00">JETHERNET::NetIP</text>
<text text-anchor="start" x="11" y="-214.5" font-family="Helvetica,sans-Serif" font-size="10.00">+</text>
<text text-anchor="start" x="28" y="-214.5" font-family="Helvetica,sans-Serif" font-size="10.00">num</text>
<text text-anchor="start" x="11" y="-198.5" font-family="Helvetica,sans-Serif" font-size="10.00">+</text>
<text text-anchor="start" x="28" y="-198.5" font-family="Helvetica,sans-Serif" font-size="10.00">raw</text>
<text text-anchor="start" x="11" y="-182.5" font-family="Helvetica,sans-Serif" font-size="10.00">+</text>
<text text-anchor="start" x="28" y="-182.5" font-family="Helvetica,sans-Serif" font-size="10.00">@1</text>
<text text-anchor="start" x="11" y="-166.5" font-family="Helvetica,sans-Serif" font-size="10.00">+</text>
<text text-anchor="start" x="28" y="-166.5" font-family="Helvetica,sans-Serif" font-size="10.00">cString()</text>
<text text-anchor="start" x="11" y="-150.5" font-family="Helvetica,sans-Serif" font-size="10.00">+</text>
<text text-anchor="start" x="28" y="-150.5" font-family="Helvetica,sans-Serif" font-size="10.00">operator[]()</text>
<text text-anchor="start" x="11" y="-134.5" font-family="Helvetica,sans-Serif" font-size="10.00">+</text>
<text text-anchor="start" x="28" y="-134.5" font-family="Helvetica,sans-Serif" font-size="10.00">operator[]()</text>
<text text-anchor="start" x="11" y="-118.5" font-family="Helvetica,sans-Serif" font-size="10.00">+</text>
<text text-anchor="start" x="28" y="-118.5" font-family="Helvetica,sans-Serif" font-size="10.00">operator=()</text>
<text text-anchor="start" x="11" y="-102.5" font-family="Helvetica,sans-Serif" font-size="10.00">+</text>
<text text-anchor="start" x="28" y="-102.5" font-family="Helvetica,sans-Serif" font-size="10.00">operator=()</text>
<text text-anchor="start" x="11" y="-86.5" font-family="Helvetica,sans-Serif" font-size="10.00">+</text>
<text text-anchor="start" x="28" y="-86.5" font-family="Helvetica,sans-Serif" font-size="10.00">operator==()</text>
<text text-anchor="start" x="11" y="-70.5" font-family="Helvetica,sans-Serif" font-size="10.00">+</text>
<text text-anchor="start" x="28" y="-70.5" font-family="Helvetica,sans-Serif" font-size="10.00">operator!=()</text>
<text text-anchor="start" x="11" y="-54.5" font-family="Helvetica,sans-Serif" font-size="10.00">+</text>
<text text-anchor="start" x="28" y="-54.5" font-family="Helvetica,sans-Serif" font-size="10.00">NetIP()</text>
<text text-anchor="start" x="11" y="-38.5" font-family="Helvetica,sans-Serif" font-size="10.00">+</text>
<text text-anchor="start" x="28" y="-38.5" font-family="Helvetica,sans-Serif" font-size="10.00">NetIP()</text>
<text text-anchor="start" x="11" y="-22.5" font-family="Helvetica,sans-Serif" font-size="10.00">+</text>
<text text-anchor="start" x="28" y="-22.5" font-family="Helvetica,sans-Serif" font-size="10.00">NetIP()</text>
<text text-anchor="start" x="11" y="-6.5" font-family="Helvetica,sans-Serif" font-size="10.00">+</text>
<text text-anchor="start" x="28" y="-6.5" font-family="Helvetica,sans-Serif" font-size="10.00">NetIP()</text>
<polygon fill="#666666" stroke="#666666" points="0,-226 0,-226 100,-226 100,-226 0,-226"/>
<polygon fill="#666666" stroke="#666666" points="0,-178 0,-178 26,-178 26,-178 0,-178"/>
<polygon fill="#666666" stroke="#666666" points="26,-178 26,-178 100,-178 100,-178 26,-178"/>
<polygon fill="none" stroke="#666666" points="0,0 0,-244 100,-244 100,0 0,0"/>
</a>
</g>
</g>
</g>
</svg>
