<?xml version="1.0" encoding="UTF-8" standalone="no"?>
<!DOCTYPE svg PUBLIC "-//W3C//DTD SVG 1.1//EN"
 "http://www.w3.org/Graphics/SVG/1.1/DTD/svg11.dtd">
<!-- Generated by graphviz version 12.1.2 (20240928.0832)
 -->
<!-- Title: JMQTT::OnMessageData Pages: 1 -->
<!--zoomable 480 -->

<svg id="main" version="1.1" xmlns="http://www.w3.org/2000/svg" xmlns:xlink="http://www.w3.org/1999/xlink" xml:space="preserve" onload="init(evt)">
<style type="text/css"><![CDATA[
.node, .edge {opacity: 0.7;}
.node.selected, .edge.selected {opacity: 1;}
.edge:hover path { stroke: red; }
.edge:hover polygon { stroke: red; fill: red; }
]]></style>

<defs>
  <circle id="rim" cx="0" cy="0" r="7"/>
  <circle id="rim2" cx="0" cy="0" r="3.5"/>
  <g id="zoomPlus">
    <use xlink:href="#rim" fill="#404040"><set attributeName="fill" to="#808080" begin="zoomplus.mouseover" end="zoomplus.mouseout"/></use>
    <path d="M-4,0h8M0,-4v8" fill="none" stroke="white" stroke-width="1.5" pointer-events="none"/>
  </g>
  <g id="zoomMin">
    <use xlink:href="#rim" fill="#404040"><set attributeName="fill" to="#808080" begin="zoomminus.mouseover" end="zoomminus.mouseout"/></use>
    <path d="M-4,0h8" fill="none" stroke="white" stroke-width="1.5" pointer-events="none"/>
  </g>
  <g id="arrowUp" transform="translate(30 24)">
    <use xlink:href="#rim"/>
    <path pointer-events="none" fill="none" stroke="white" stroke-width="1.5" d="M0,-3.0v7 M-2.5,-0.5L0,-3.0L2.5,-0.5"/>
  </g>
  <g id="arrowRight" transform="rotate(90) translate(36 -43)">
    <use xlink:href="#rim"/>
    <path pointer-events="none" fill="none" stroke="white" stroke-width="1.5" d="M0,-3.0v7 M-2.5,-0.5L0,-3.0L2.5,-0.5"/>
  </g>
  <g id="arrowDown" transform="rotate(180) translate(-30 -48)">
    <use xlink:href="#rim"/>
    <path pointer-events="none" fill="none" stroke="white" stroke-width="1.5" d="M0,-3.0v7 M-2.5,-0.5L0,-3.0L2.5,-0.5"/>
  </g>
  <g id="arrowLeft" transform="rotate(270) translate(-36 17)">
    <use xlink:href="#rim"/>
    <path pointer-events="none" fill="none" stroke="white" stroke-width="1.5" d="M0,-3.0v7 M-2.5,-0.5L0,-3.0L2.5,-0.5"/>
  </g>
  <g id="resetDef">
    <use xlink:href="#rim2" fill="#404040"><set attributeName="fill" to="#808080" begin="reset.mouseover" end="reset.mouseout"/></use>
  </g>
</defs>
<script type="application/ecmascript">
var viewWidth = 250;
var viewHeight = 480;
var sectionId = 'dynsection-0';
</script>
<script type="application/ecmascript" xlink:href="svg.min.js"/>
<svg id="graph" class="graph">
<g id="viewport">
<title>JMQTT::OnMessageData</title>
<!-- Node1 -->
<g id="Node000001" class="node">
<title>Node1</title>
<g id="a_Node000001"><a xlink:title=" ">
<polygon fill="#999999" stroke="none" points="155,-52 34,-52 34,0 155,0 155,-52"/>
<text text-anchor="start" x="38.62" y="-38.5" font-family="Helvetica,sans-Serif" font-size="10.00">JMQTT::OnMessageData</text>
<text text-anchor="start" x="93" y="-22.5" font-family="Helvetica,sans-Serif" font-size="10.00"> </text>
<text text-anchor="start" x="93" y="-6.5" font-family="Helvetica,sans-Serif" font-size="10.00"> </text>
<polygon fill="#666666" stroke="#666666" points="34,-34 34,-34 155,-34 155,-34 34,-34"/>
<polygon fill="#666666" stroke="#666666" points="34,-18 34,-18 155,-18 155,-18 34,-18"/>
<polygon fill="none" stroke="#666666" points="34,0 34,-52 155,-52 155,0 34,0"/>
</a>
</g>
</g>
<!-- Node2 -->
<g id="Node000002" class="node">
<title>Node2</title>
<g id="a_Node000002"><a xlink:href="class_j_m_q_t_t_1_1_client.html" target="_top" xlink:title=" ">
<polygon fill="white" stroke="none" points="135,-360 0,-360 0,-100 135,-100 135,-360"/>
<text text-anchor="start" x="35.62" y="-346.5" font-family="Helvetica,sans-Serif" font-size="10.00">JMQTT::Client</text>
<text text-anchor="start" x="66" y="-330.5" font-family="Helvetica,sans-Serif" font-size="10.00"> </text>
<text text-anchor="start" x="4" y="-314.5" font-family="Helvetica,sans-Serif" font-size="10.00">+</text>
<text text-anchor="start" x="14" y="-314.5" font-family="Helvetica,sans-Serif" font-size="10.00">publish()</text>
<text text-anchor="start" x="4" y="-298.5" font-family="Helvetica,sans-Serif" font-size="10.00">+</text>
<text text-anchor="start" x="14" y="-298.5" font-family="Helvetica,sans-Serif" font-size="10.00">publish()</text>
<text text-anchor="start" x="4" y="-282.5" font-family="Helvetica,sans-Serif" font-size="10.00">+</text>
<text text-anchor="start" x="14" y="-282.5" font-family="Helvetica,sans-Serif" font-size="10.00">update()</text>
<text text-anchor="start" x="4" y="-266.5" font-family="Helvetica,sans-Serif" font-size="10.00">+</text>
<text text-anchor="start" x="14" y="-266.5" font-family="Helvetica,sans-Serif" font-size="10.00">subscribe()</text>
<text text-anchor="start" x="4" y="-250.5" font-family="Helvetica,sans-Serif" font-size="10.00">+</text>
<text text-anchor="start" x="14" y="-250.5" font-family="Helvetica,sans-Serif" font-size="10.00">subscribe()</text>
<text text-anchor="start" x="4" y="-234.5" font-family="Helvetica,sans-Serif" font-size="10.00">+</text>
<text text-anchor="start" x="14" y="-234.5" font-family="Helvetica,sans-Serif" font-size="10.00">isTopicMatched()</text>
<text text-anchor="start" x="4" y="-218.5" font-family="Helvetica,sans-Serif" font-size="10.00">+</text>
<text text-anchor="start" x="14" y="-218.5" font-family="Helvetica,sans-Serif" font-size="10.00">connect()</text>
<text text-anchor="start" x="4" y="-202.5" font-family="Helvetica,sans-Serif" font-size="10.00">+</text>
<text text-anchor="start" x="14" y="-202.5" font-family="Helvetica,sans-Serif" font-size="10.00">reconnect()</text>
<text text-anchor="start" x="4" y="-186.5" font-family="Helvetica,sans-Serif" font-size="10.00">+</text>
<text text-anchor="start" x="14" y="-186.5" font-family="Helvetica,sans-Serif" font-size="10.00">disconnect()</text>
<text text-anchor="start" x="4" y="-170.5" font-family="Helvetica,sans-Serif" font-size="10.00">+</text>
<text text-anchor="start" x="14" y="-170.5" font-family="Helvetica,sans-Serif" font-size="10.00">isConnected()</text>
<text text-anchor="start" x="4" y="-154.5" font-family="Helvetica,sans-Serif" font-size="10.00">+</text>
<text text-anchor="start" x="14" y="-154.5" font-family="Helvetica,sans-Serif" font-size="10.00">registerMessageReceiver()</text>
<text text-anchor="start" x="4" y="-138.5" font-family="Helvetica,sans-Serif" font-size="10.00">+</text>
<text text-anchor="start" x="14" y="-138.5" font-family="Helvetica,sans-Serif" font-size="10.00">setMessageCallback()</text>
<text text-anchor="start" x="4" y="-122.5" font-family="Helvetica,sans-Serif" font-size="10.00">+</text>
<text text-anchor="start" x="14" y="-122.5" font-family="Helvetica,sans-Serif" font-size="10.00">setConnectCallback()</text>
<text text-anchor="start" x="4" y="-106.5" font-family="Helvetica,sans-Serif" font-size="10.00">+</text>
<text text-anchor="start" x="14" y="-106.5" font-family="Helvetica,sans-Serif" font-size="10.00">~Client()</text>
<polygon fill="#666666" stroke="#666666" points="0,-342 0,-342 135,-342 135,-342 0,-342"/>
<polygon fill="#666666" stroke="#666666" points="0,-326 0,-326 135,-326 135,-326 0,-326"/>
<polygon fill="none" stroke="#666666" points="0,-100 0,-360 135,-360 135,-100 0,-100"/>
</a>
</g>
</g>
<!-- Node2&#45;&gt;Node1 -->
<g id="edge1_Node000001_Node000002" class="edge">
<title>Node2&#45;&gt;Node1</title>
<g id="a_edge1_Node000001_Node000002"><a xlink:title=" ">
<path fill="none" stroke="#63b8ff" d="M84.71,-100.21C86.42,-87.48 88.03,-75.39 89.44,-64.84"/>
<polygon fill="none" stroke="#63b8ff" points="89.46,-64.72 86.29,-58.24 91.05,-52.82 94.22,-59.3 89.46,-64.72"/>
</a>
</g>
<text text-anchor="middle" x="104.79" y="-72.5" font-family="Helvetica,sans-Serif" font-size="10.00" fill="grey"> +client</text>
</g>
<!-- Node3 -->
<g id="Node000003" class="node">
<title>Node3</title>
<g id="a_Node000003"><a xlink:href="struct_j_m_q_t_t_1_1_message.html" target="_top" xlink:title=" ">
<polygon fill="white" stroke="none" points="241.5,-256 153.5,-256 153.5,-204 241.5,-204 241.5,-256"/>
<text text-anchor="start" x="158.5" y="-242.5" font-family="Helvetica,sans-Serif" font-size="10.00">JMQTT::Message</text>
<text text-anchor="start" x="158" y="-226.5" font-family="Helvetica,sans-Serif" font-size="10.00">+</text>
<text text-anchor="start" x="168.5" y="-226.5" font-family="Helvetica,sans-Serif" font-size="10.00">qos</text>
<text text-anchor="start" x="158" y="-210.5" font-family="Helvetica,sans-Serif" font-size="10.00">+</text>
<text text-anchor="start" x="168.5" y="-210.5" font-family="Helvetica,sans-Serif" font-size="10.00">operator string()</text>
<polygon fill="#666666" stroke="#666666" points="153.5,-238 153.5,-238 241.5,-238 241.5,-238 153.5,-238"/>
<polygon fill="#666666" stroke="#666666" points="153.5,-222 153.5,-222 166.5,-222 166.5,-222 153.5,-222"/>
<polygon fill="#666666" stroke="#666666" points="166.5,-222 166.5,-222 241.5,-222 241.5,-222 166.5,-222"/>
<polygon fill="none" stroke="#666666" points="153.5,-204 153.5,-256 241.5,-256 241.5,-204 153.5,-204"/>
</a>
</g>
</g>
<!-- Node3&#45;&gt;Node1 -->
<g id="edge2_Node000001_Node000003" class="edge">
<title>Node3&#45;&gt;Node1</title>
<g id="a_edge2_Node000001_Node000003"><a xlink:title=" ">
<path fill="none" stroke="#63b8ff" d="M188.94,-204.09C179.45,-177.61 163.04,-134.84 144.5,-100 136.97,-85.85 133.53,-83.24 124.5,-70 122.81,-67.53 121.06,-64.98 119.3,-62.41"/>
<polygon fill="none" stroke="#63b8ff" points="119.39,-62.55 112.68,-59.9 112.55,-52.69 119.26,-55.34 119.39,-62.55"/>
</a>
</g>
<text text-anchor="middle" x="157.28" y="-72.5" font-family="Helvetica,sans-Serif" font-size="10.00" fill="grey"> +message</text>
</g>
<!-- Node4 -->
<g id="Node000004" class="node">
<title>Node4</title>
<g id="a_Node000004"><a xlink:title=" ">
<polygon fill="white" stroke="none" points="214.5,-472 180.5,-472 180.5,-420 214.5,-420 214.5,-472"/>
<text text-anchor="start" x="185.5" y="-458.5" font-family="Helvetica,sans-Serif" font-size="10.00">string</text>
<text text-anchor="start" x="196" y="-442.5" font-family="Helvetica,sans-Serif" font-size="10.00"> </text>
<text text-anchor="start" x="196" y="-426.5" font-family="Helvetica,sans-Serif" font-size="10.00"> </text>
<polygon fill="#666666" stroke="#666666" points="180.5,-454 180.5,-454 214.5,-454 214.5,-454 180.5,-454"/>
<polygon fill="#666666" stroke="#666666" points="180.5,-438 180.5,-438 214.5,-438 214.5,-438 180.5,-438"/>
<polygon fill="none" stroke="#666666" points="180.5,-420 180.5,-472 214.5,-472 214.5,-420 180.5,-420"/>
</a>
</g>
</g>
<!-- Node4&#45;&gt;Node3 -->
<g id="edge3_Node000003_Node000004" class="edge">
<title>Node4&#45;&gt;Node3</title>
<g id="a_edge3_Node000003_Node000004"><a xlink:title=" ">
<path fill="none" stroke="#63b8ff" d="M197.5,-420.03C197.5,-382.74 197.5,-312.24 197.5,-268.67"/>
<polygon fill="none" stroke="#63b8ff" points="197.5,-268.71 193.5,-262.71 197.5,-256.71 201.5,-262.71 197.5,-268.71"/>
</a>
</g>
<text text-anchor="middle" x="218.88" y="-392.5" font-family="Helvetica,sans-Serif" font-size="10.00" fill="grey"> +payload</text>
<text text-anchor="middle" x="218.88" y="-380.5" font-family="Helvetica,sans-Serif" font-size="10.00" fill="grey">+topic</text>
</g>
</g>
</svg>

<g id="navigator" transform="translate(0 0)" fill="#404254">
  <rect fill="#f2f5e9" fill-opacity="0.5" stroke="#606060" stroke-width=".5" x="0" y="0" width="60" height="60"/>
  <use id="zoomplus" xlink:href="#zoomPlus" x="17" y="9" onmousedown="handleZoom(evt,'in')"/>
  <use id="zoomminus" xlink:href="#zoomMin" x="42" y="9" onmousedown="handleZoom(evt,'out')"/>
  <use id="reset" xlink:href="#resetDef" x="30" y="36" onmousedown="handleReset()"/>
   <use id="arrowup" xlink:href="#arrowUp" x="0" y="0" onmousedown="handlePan(0,-1)"/>
  <use id="arrowright" xlink:href="#arrowRight" x="0" y="0" onmousedown="handlePan(1,0)"/>
  <use id="arrowdown" xlink:href="#arrowDown" x="0" y="0" onmousedown="handlePan(0,1)"/>
  <use id="arrowleft" xlink:href="#arrowLeft" x="0" y="0" onmousedown="handlePan(-1,0)"/>
</g>
<svg viewBox="0 0 15 15" width="100%" height="30px" preserveAspectRatio="xMaxYMin meet">
 <g id="arrow_out" transform="scale(0.3 0.3)">
  <a xlink:href="struct_j_m_q_t_t_1_1_on_message_data__coll__graph_org.svg" target="_base">
   <rect id="button" ry="5" rx="5" y="6" x="6" height="38" width="38"
        fill="#f2f5e9" fill-opacity="0.5" stroke="#606060" stroke-width="1.0"/>
   <path id="arrow"
     d="M 11.500037,31.436501 C 11.940474,20.09759 22.043105,11.32322 32.158766,21.979434 L 37.068811,17.246167 C 37.068811,17.246167 37.088388,32 37.088388,32 L 22.160133,31.978069 C 22.160133,31.978069 26.997745,27.140456 26.997745,27.140456 C 18.528582,18.264221 13.291696,25.230495 11.500037,31.436501 z"
     style="fill:#404040;"/>
  </a>
 </g>
</svg>

<style type='text/css'>
<![CDATA[
[data-mouse-over-selected='false'] { opacity: 0.7; }
[data-mouse-over-selected='true']  { opacity: 1.0; }
]]>
</style>
<script type="application/ecmascript"><![CDATA[
document.addEventListener('DOMContentLoaded', (event) => {
  highlightEdges();
  highlightAdjacentNodes();
});
]]></script>
</svg>
