<?xml version="1.0" encoding="UTF-8" standalone="no"?>
<!DOCTYPE svg PUBLIC "-//W3C//DTD SVG 1.1//EN"
 "http://www.w3.org/Graphics/SVG/1.1/DTD/svg11.dtd">
<!-- Generated by graphviz version 12.1.2 (20240928.0832)
 -->
<!-- Title: JMQTT::Message Pages: 1 -->
<svg width="96pt" height="172pt"
 viewBox="0.00 0.00 96.00 172.00" xmlns="http://www.w3.org/2000/svg" xmlns:xlink="http://www.w3.org/1999/xlink">

<svg id="main" version="1.1" xmlns="http://www.w3.org/2000/svg" xmlns:xlink="http://www.w3.org/1999/xlink" xml:space="preserve" onload="init(evt)">
<style type="text/css"><![CDATA[
.node, .edge {opacity: 0.7;}
.node.selected, .edge.selected {opacity: 1;}
.edge:hover path { stroke: red; }
.edge:hover polygon { stroke: red; fill: red; }
]]></style>
<script type="application/ecmascript" xlink:href="svg.min.js"/>
<svg id="graph" class="graph">
<g id="graph0" class="graph" transform="scale(1 1) rotate(0) translate(4 168)">
<title>JMQTT::Message</title>
<!-- Node1 -->
<g id="Node000001" class="node">
<title>Node1</title>
<g id="a_Node000001"><a xlink:title=" ">
<polygon fill="#999999" stroke="none" points="88,-52 0,-52 0,0 88,0 88,-52"/>
<text text-anchor="start" x="5" y="-38.5" font-family="Helvetica,sans-Serif" font-size="10.00">JMQTT::Message</text>
<text text-anchor="start" x="4.5" y="-22.5" font-family="Helvetica,sans-Serif" font-size="10.00">+</text>
<text text-anchor="start" x="15" y="-22.5" font-family="Helvetica,sans-Serif" font-size="10.00">qos</text>
<text text-anchor="start" x="4.5" y="-6.5" font-family="Helvetica,sans-Serif" font-size="10.00">+</text>
<text text-anchor="start" x="15" y="-6.5" font-family="Helvetica,sans-Serif" font-size="10.00">operator string()</text>
<polygon fill="#666666" stroke="#666666" points="0,-34 0,-34 88,-34 88,-34 0,-34"/>
<polygon fill="#666666" stroke="#666666" points="0,-18 0,-18 13,-18 13,-18 0,-18"/>
<polygon fill="#666666" stroke="#666666" points="13,-18 13,-18 88,-18 88,-18 13,-18"/>
<polygon fill="none" stroke="#666666" points="0,0 0,-52 88,-52 88,0 0,0"/>
</a>
</g>
</g>
<!-- Node2 -->
<g id="Node000002" class="node">
<title>Node2</title>
<g id="a_Node000002"><a xlink:title=" ">
<polygon fill="white" stroke="none" points="61,-164 27,-164 27,-112 61,-112 61,-164"/>
<text text-anchor="start" x="32" y="-150.5" font-family="Helvetica,sans-Serif" font-size="10.00">string</text>
<text text-anchor="start" x="42.5" y="-134.5" font-family="Helvetica,sans-Serif" font-size="10.00"> </text>
<text text-anchor="start" x="42.5" y="-118.5" font-family="Helvetica,sans-Serif" font-size="10.00"> </text>
<polygon fill="#666666" stroke="#666666" points="27,-146 27,-146 61,-146 61,-146 27,-146"/>
<polygon fill="#666666" stroke="#666666" points="27,-130 27,-130 61,-130 61,-130 27,-130"/>
<polygon fill="none" stroke="#666666" points="27,-112 27,-164 61,-164 61,-112 27,-112"/>
</a>
</g>
</g>
<!-- Node2&#45;&gt;Node1 -->
<g id="edge1_Node000001_Node000002" class="edge">
<title>Node2&#45;&gt;Node1</title>
<g id="a_edge1_Node000001_Node000002"><a xlink:title=" ">
<path fill="none" stroke="#63b8ff" d="M44,-112.04C44,-98.12 44,-80.49 44,-64.9"/>
<polygon fill="none" stroke="#63b8ff" points="44,-64.76 40,-58.76 44,-52.76 48,-58.76 44,-64.76"/>
</a>
</g>
<text text-anchor="middle" x="65.38" y="-84.5" font-family="Helvetica,sans-Serif" font-size="10.00" fill="grey"> +payload</text>
<text text-anchor="middle" x="65.38" y="-72.5" font-family="Helvetica,sans-Serif" font-size="10.00" fill="grey">+topic</text>
</g>
</g>
</svg>
</svg>

<style type='text/css'>
<![CDATA[
[data-mouse-over-selected='false'] { opacity: 0.7; }
[data-mouse-over-selected='true']  { opacity: 1.0; }
]]>
</style>
<script type="application/ecmascript"><![CDATA[
document.addEventListener('DOMContentLoaded', (event) => {
  highlightEdges();
  highlightAdjacentNodes();
});
]]></script>
</svg>
